<svg width="512" height="512" viewBox="0 0 512 512" xmlns="http://www.w3.org/2000/svg">
  <!-- 背景グラデーション -->
  <defs>
    <linearGradient id="bg" x1="0%" y1="0%" x2="100%" y2="100%">
      <stop offset="0%" style="stop-color:#667eea;stop-opacity:1" />
      <stop offset="100%" style="stop-color:#764ba2;stop-opacity:1" />
    </linearGradient>
  </defs>
  
  <!-- 背景 -->
  <rect width="512" height="512" rx="80" ry="80" fill="url(#bg)"/>
  
  <!-- 白い円形背景 -->
  <circle cx="256" cy="256" r="160" fill="rgba(255,255,255,0.2)"/>
  
  <!-- マイクアイコン -->
  <g transform="translate(256,256)">
    <!-- マイクボディ -->
    <rect x="-30" y="-80" width="60" height="120" rx="30" ry="30" fill="white"/>
    
    <!-- マイクスタンド -->
    <rect x="-3" y="40" width="6" height="60" fill="white"/>
    
    <!-- マイクベース -->
    <rect x="-40" y="95" width="80" height="10" rx="5" ry="5" fill="white"/>
    
    <!-- 音波 -->
    <path d="M -80,-20 Q -100,-20 -100,0 Q -100,20 -80,20" stroke="white" stroke-width="8" fill="none"/>
    <path d="M 80,-20 Q 100,-20 100,0 Q 100,20 80,20" stroke="white" stroke-width="8" fill="none"/>
    
    <path d="M -110,-40 Q -140,-40 -140,0 Q -140,40 -110,40" stroke="white" stroke-width="6" fill="none"/>
    <path d="M 110,-40 Q 140,-40 140,0 Q 140,40 110,40" stroke="white" stroke-width="6" fill="none"/>
  </g>
</svg>
